<svg id="_0475_online_storage" xmlns="http://www.w3.org/2000/svg" xmlns:xlink="http://www.w3.org/1999/xlink" viewBox="0 0 500 500" data-imageid="data-storage-3-80" imageName="Data Storage 3" class="illustrations_image" style="width: 170px;"><defs><style>.cls-1_data-storage-3-80{fill:#020202;opacity:.1;}.cls-1_data-storage-3-80,.cls-2_data-storage-3-80,.cls-3_data-storage-3-80,.cls-4_data-storage-3-80,.cls-5_data-storage-3-80,.cls-6_data-storage-3-80,.cls-7_data-storage-3-80,.cls-8_data-storage-3-80,.cls-9_data-storage-3-80,.cls-10_data-storage-3-80,.cls-11_data-storage-3-80,.cls-12_data-storage-3-80,.cls-13_data-storage-3-80,.cls-14_data-storage-3-80,.cls-15_data-storage-3-80,.cls-16_data-storage-3-80,.cls-17_data-storage-3-80,.cls-18_data-storage-3-80,.cls-19_data-storage-3-80,.cls-20_data-storage-3-80,.cls-21_data-storage-3-80{stroke-width:0px;}.cls-1_data-storage-3-80,.cls-3_data-storage-3-80{isolation:isolate;}.cls-2_data-storage-3-80{fill:url(#linear-gradient);}.cls-3_data-storage-3-80{opacity:.18;}.cls-3_data-storage-3-80,.cls-21_data-storage-3-80{fill:#68e1fd;}.cls-4_data-storage-3-80{fill:url(#linear-gradient-11-data-storage-3-80);}.cls-5_data-storage-3-80{fill:url(#linear-gradient-12-data-storage-3-80);}.cls-6_data-storage-3-80{fill:url(#linear-gradient-13-data-storage-3-80);}.cls-7_data-storage-3-80{fill:url(#linear-gradient-10-data-storage-3-80);}.cls-8_data-storage-3-80{fill:url(#linear-gradient-4-data-storage-3-80);}.cls-9_data-storage-3-80{fill:url(#linear-gradient-2-data-storage-3-80);}.cls-10_data-storage-3-80{fill:url(#linear-gradient-3-data-storage-3-80);}.cls-11_data-storage-3-80{fill:url(#linear-gradient-8-data-storage-3-80);}.cls-12_data-storage-3-80{fill:url(#linear-gradient-9-data-storage-3-80);}.cls-13_data-storage-3-80{fill:url(#linear-gradient-7-data-storage-3-80);}.cls-14_data-storage-3-80{fill:url(#linear-gradient-5-data-storage-3-80);}.cls-15_data-storage-3-80{fill:url(#linear-gradient-6-data-storage-3-80);}.cls-16_data-storage-3-80{fill:#231f20;}.cls-17_data-storage-3-80{fill:#e0a194;}.cls-18_data-storage-3-80{fill:#c14834;}.cls-19_data-storage-3-80{fill:#fff;}.cls-20_data-storage-3-80{fill:#ffb4a3;}</style><linearGradient id="linear-gradient-data-storage-3-80" x1="294.32" y1="3986.8" x2="69.76" y2="4007.49" gradientTransform="translate(-31 4387.76) scale(1 -1)" gradientUnits="userSpaceOnUse"><stop offset="0" stop-color="#231f20"/><stop offset=".13" stop-color="#231f20" stop-opacity=".69"/><stop offset=".25" stop-color="#231f20" stop-opacity=".32"/><stop offset="1" stop-color="#231f20" stop-opacity="0"/></linearGradient><linearGradient id="linear-gradient-2-data-storage-3-80" x1="339.23" y1="4054.91" x2="-19.05" y2="4057.92" xlink:href="#linear-gradient-data-storage-3-80"/><linearGradient id="linear-gradient-3-data-storage-3-80" x1="333.23" y1="4054.92" x2="436.28" y2="4023.32" gradientTransform="translate(-42.87 4381.74) scale(1 -1)" xlink:href="#linear-gradient-data-storage-3-80"/><linearGradient id="linear-gradient-4-data-storage-3-80" x1="344.98" y1="4118.96" x2="-15.32" y2="4156.8" xlink:href="#linear-gradient-data-storage-3-80"/><linearGradient id="linear-gradient-5-data-storage-3-80" x1="406.99" y1="4007.58" x2="404.73" y2="4060.18" gradientTransform="translate(-42.87 4381.74) scale(1 -1)" xlink:href="#linear-gradient-data-storage-3-80"/><linearGradient id="linear-gradient-6-data-storage-3-80" x1="403.81" y1="3981.18" x2="409.87" y2="4078.07" gradientTransform="translate(-42.87 4381.74) scale(1 -1)" xlink:href="#linear-gradient-data-storage-3-80"/><linearGradient id="linear-gradient-7-data-storage-3-80" x1="245.46" y1="4045.55" x2="670.82" y2="3904.78" xlink:href="#linear-gradient-data-storage-3-80"/><linearGradient id="linear-gradient-8-data-storage-3-80" x1="272.58" y1="4038.71" x2="638.19" y2="3917.71" xlink:href="#linear-gradient-data-storage-3-80"/><linearGradient id="linear-gradient-9-data-storage-3-80" x1="406.15" y1="3991.98" x2="435.68" y2="3991.98" gradientTransform="translate(-42.87 4381.74) scale(1 -1)" xlink:href="#linear-gradient-data-storage-3-80"/><linearGradient id="linear-gradient-10-data-storage-3-80" x1="207.28" y1="4027.26" x2="84.65" y2="3922.81" gradientTransform="translate(-42.87 4381.74) scale(1 -1)" xlink:href="#linear-gradient-data-storage-3-80"/><linearGradient id="linear-gradient-11-data-storage-3-80" x1="342.4" y1="4163.32" x2="277.3" y2="4073.5" gradientTransform="translate(-42.87 4381.74) scale(1 -1)" xlink:href="#linear-gradient-data-storage-3-80"/><linearGradient id="linear-gradient-12-data-storage-3-80" x1="426.69" y1="4215.1" x2="151.66" y2="4244.87" gradientTransform="translate(-42.87 4381.74) scale(1 -1)" xlink:href="#linear-gradient-data-storage-3-80"/><linearGradient id="linear-gradient-13-data-storage-3-80" x1="343.48" y1="4158.42" x2="273.83" y2="4221.63" xlink:href="#linear-gradient-data-storage-3-80"/></defs><g id="background_data-storage-3-80"><path class="cls-3_data-storage-3-80 targetColor" d="M349.13,122.83c9.37,17.71,18.9,37.03,26.15,55.55,7.37,18.83,23.24,34.76,37.85,47.94,16.13,14.55,33.67,27.49,48.86,43.06,15.19,15.57,28.15,34.39,32.37,55.86,4.78,24.31-2.16,49.77-14.04,71.42-3.7,7.13-8.46,13.62-14.11,19.27-5.87,5.58-12.99,9.64-20.15,13.3-19.17,9.76-39.34,17.34-60.63,20.26-22.16,3.04-44.7,1.69-66.82-1.1-29.75-3.74-59.22-10.08-89.16-11.9-21.58-1.32-43.23-.24-64.78,1.42-23.06,1.76-46.57,4.14-69.06-1.32-29.51-7.15-55.09-27.88-70.72-54.43-13.63-23.09-28.94-67-17.02-92.89,12.7-27.57,47.14-46.29,69.7-64.37,9.09-7.31,18.19-15.37,23.38-25.95,5.79-11.8,6.22-25.46,8.63-38.35,7.79-41.99,38.97-78.62,78.76-92.4,55.86-19.39,123.33-6.52,156.25,46.74,1.6,2.54,3.1,5.21,4.53,7.91Z" style="fill: rgb(104, 225, 253);"/><rect class="cls-3_data-storage-3-80 targetColor" x="112.25" y="179.04" width="44.13" height="60.18" style="fill: rgb(104, 225, 253);"/><rect class="cls-19_data-storage-3-80" x="101.5" y="188.79" width="44.13" height="60.18"/></g><g id="technology_data-storage-3-80"><polygon class="cls-21_data-storage-3-80 targetColor" points="410.21 391.45 398.86 391.45 398.86 390.46 409.21 390.46 409.21 297.83 369.29 297.83 369.29 160.91 332.64 160.91 332.64 159.92 370.27 159.92 370.27 296.85 410.21 296.85 410.21 391.45" style="fill: rgb(104, 225, 253);"/><polygon class="cls-21_data-storage-3-80 targetColor" points="182.87 233.13 181.87 233.13 181.87 200.39 207.42 200.39 207.42 170.83 208.41 170.83 208.41 201.39 182.87 201.39 182.87 233.13" style="fill: rgb(104, 225, 253);"/><rect class="cls-21_data-storage-3-80 targetColor" x="160.42" y="370.9" width="161.23" height="56.01" rx="14.91" ry="14.91" style="fill: rgb(104, 225, 253);"/><rect class="cls-21_data-storage-3-80 targetColor" x="160.42" y="304.28" width="161.23" height="56.01" rx="14.91" ry="14.91" style="fill: rgb(104, 225, 253);"/><rect class="cls-2_data-storage-3-80" x="160.42" y="370.9" width="161.23" height="56.01" rx="14.91" ry="14.91"/><rect class="cls-9_data-storage-3-80" x="160.42" y="304.28" width="161.23" height="56.01" rx="14.91" ry="14.91"/><rect class="cls-21_data-storage-3-80 targetColor" x="176.31" y="370.9" width="161.23" height="56.01" rx="14.91" ry="14.91" style="fill: rgb(104, 225, 253);"/><path class="cls-21_data-storage-3-80 targetColor" d="M337.54,319.2v26.17c.02,8.23-6.63,14.92-14.86,14.94-.03,0-.06,0-.09,0h-131.36c-8.24,0-14.91-6.68-14.91-14.91,0,0,0-.02,0-.03v-26.17c0-8.24,6.68-14.91,14.91-14.91h131.36c8.24-.02,14.93,6.65,14.94,14.88,0,0,0,.02,0,.03Z" style="fill: rgb(104, 225, 253);"/><path class="cls-10_data-storage-3-80" d="M337.54,323.59v21.78c0,4.64-2.16,9.01-5.83,11.84-.11-4.63-.37-17.53,0-23.25.32-4.15,2.46-7.94,5.83-10.37Z"/><rect class="cls-21_data-storage-3-80 targetColor" x="160.42" y="233.13" width="161.23" height="56.01" rx="14.91" ry="14.91" style="fill: rgb(104, 225, 253);"/><rect class="cls-8_data-storage-3-80" x="160.42" y="233.13" width="161.23" height="56.01" rx="14.91" ry="14.91"/><rect class="cls-21_data-storage-3-80 targetColor" x="176.31" y="233.13" width="161.23" height="56.01" rx="14.91" ry="14.91" style="fill: rgb(104, 225, 253);"/><path class="cls-19_data-storage-3-80" d="M332.61,152.09c0,10.35-8.39,18.75-18.75,18.75,0,0,0,0-.01,0h-128.52c-10.36.29-18.98-7.88-19.27-18.23-.29-10.36,7.88-18.98,18.23-19.27.35,0,.69,0,1.04,0h4.29c-5.52-19.65,5.94-40.06,25.59-45.58,3.25-.91,6.62-1.38,10-1.38h10.94c13.8-.01,26.45,7.68,32.8,19.93,3.12-1.6,6.58-2.44,10.09-2.43h2.86c12.28,0,22.23,9.95,22.23,22.23h0v1.1c0,2.07-.29,4.13-.86,6.12h10.64c10.33.05,18.68,8.43,18.69,18.76Z"/><path class="cls-19_data-storage-3-80" d="M380.44,357.23c-1.83,0-3.32-1.46-3.36-3.29v-21.78c0-7.9-6.4-14.3-14.3-14.3s-14.3,6.4-14.3,14.3v21.78c0,1.86-1.5,3.36-3.36,3.36s-3.36-1.5-3.36-3.36v-21.78c0-11.61,9.4-21.03,21.01-21.03,11.61,0,21.03,9.4,21.03,21.01v21.8c-.04,1.83-1.53,3.29-3.36,3.29Z"/><path class="cls-14_data-storage-3-80" d="M383.8,332.16v21.78c0,1.18-.64,2.27-1.66,2.86-.51.31-1.1.47-1.7.47-1.84,0-3.34-1.49-3.36-3.33v-21.78c0-7.24-5.41-13.34-12.6-14.2-.57-.06-1.13-.1-1.7-.1-7.9,0-14.3,6.4-14.3,14.3v21.78c-.01,1.18-.64,2.26-1.66,2.86-.52.31-1.11.47-1.72.47-1.85,0-3.35-1.51-3.36-3.36v-21.75c.02-11.61,9.43-21.01,21.03-21.02.57,0,1.14.03,1.7.09,10.91.89,19.31,9.99,19.32,20.93Z"/><path class="cls-15_data-storage-3-80" d="M383.8,332.16v21.78c.54.91.23,2.09-.68,2.62-.91.54-2.09.23-2.62-.68-.35-.6-.35-1.34,0-1.94v-21.78c0-7.9-6.4-14.3-14.3-14.3-.57,0-1.15.04-1.72.1-.57-.06-1.13-.1-1.7-.1-7.9,0-14.3,6.4-14.3,14.3v21.78c.53.92.22,2.09-.7,2.62-.92.53-2.09.22-2.62-.7-.34-.59-.34-1.32,0-1.92v-21.78c-.92-10.66,6.98-20.05,17.64-20.97,10.66-.92,20.05,6.98,20.97,17.64.1,1.11.1,2.22,0,3.33h.03Z"/><rect class="cls-21_data-storage-3-80 targetColor" x="324.67" y="353.86" width="74.18" height="74.18" rx="12.93" ry="12.93" style="fill: rgb(104, 225, 253);"/><rect class="cls-13_data-storage-3-80" x="324.67" y="353.87" width="74.17" height="74.17" rx="12.91" ry="12.91"/><rect class="cls-11_data-storage-3-80" x="337.54" y="353.87" width="61.31" height="74.17" rx="12.91" ry="12.91"/><path class="cls-12_data-storage-3-80" d="M368.13,388.53h0c-2.48-.79-3.86-3.44-3.07-5.93s3.44-3.86,5.93-3.07c2.48.79,3.86,3.44,3.07,5.93-.46,1.46-1.61,2.6-3.07,3.07l3.67,11.67h-9.85l3.32-11.67Z"/><circle class="cls-19_data-storage-3-80" cx="201.58" cy="261.74" r="6.33"/><circle class="cls-19_data-storage-3-80" cx="220.62" cy="261.74" r="6.33"/><circle class="cls-19_data-storage-3-80" cx="239.68" cy="261.74" r="6.33"/><circle class="cls-19_data-storage-3-80" cx="201.58" cy="332.29" r="6.33"/><circle class="cls-19_data-storage-3-80" cx="220.62" cy="332.29" r="6.33"/><circle class="cls-19_data-storage-3-80" cx="239.68" cy="332.29" r="6.33"/><circle class="cls-19_data-storage-3-80" cx="201.58" cy="402.84" r="6.33"/><circle class="cls-19_data-storage-3-80" cx="220.62" cy="402.84" r="6.33"/><circle class="cls-19_data-storage-3-80" cx="239.68" cy="402.84" r="6.33"/><rect class="cls-21_data-storage-3-80 targetColor" x="345.16" y="206.92" width="60.18" height="60.18" style="fill: rgb(104, 225, 253);"/><path class="cls-21_data-storage-3-80 targetColor" d="M80.31,357.32c.33,3.07,1.39,6.01,3.1,8.58,6.86,12.13,14.56,24.06,25.18,33.06,15.63,13.21,36.08,18.92,55.84,24.31-1.76-.86-3.89-10.01-4.68-11.97-1.53-3.92-2.96-7.88-4.42-11.83-2.33-6.22-7.15-11.22-11.95-15.81-10.75-10.39-23.82-18.07-38.12-22.42-8.09-2.48-16.49-3.79-24.95-3.92Z" style="fill: rgb(104, 225, 253);"/><path class="cls-7_data-storage-3-80" d="M80.31,357.32c.33,3.07,1.39,6.01,3.1,8.58,6.86,12.13,14.56,24.06,25.18,33.06,15.63,13.21,36.08,18.92,55.84,24.31-1.76-.86-3.89-10.01-4.68-11.97-1.53-3.92-2.96-7.88-4.42-11.83-2.33-6.22-7.15-11.22-11.95-15.81-10.75-10.39-23.82-18.07-38.12-22.42-8.09-2.48-16.49-3.79-24.95-3.92Z"/><path class="cls-21_data-storage-3-80 targetColor" d="M157.62,364.11c-1.62-11.28-3.27-22.71-7.81-33.16-4.53-10.45-12.4-20.02-23.08-23.92-.31,16.15-.62,32.29-.93,48.43-.19,9.32-.34,18.83,2.33,27.77,4.7,15.73,20.99,34.05,36.68,39.22,2.33-7.52-1.57-18.92-2.69-26.74l-4.5-31.6Z" style="fill: rgb(104, 225, 253);"/><rect class="cls-19_data-storage-3-80" x="272.07" y="329.73" width="49.57" height="5.1"/><rect class="cls-19_data-storage-3-80" x="272.07" y="400.28" width="49.57" height="5.1"/><path class="cls-19_data-storage-3-80" d="M359.78,226.95l15.16-7.92,14.54,7.88s-2.7,19.46-14.18,25.04c-.03,0-14.27-5.45-15.51-24.99Z"/></g><g id="character_data-storage-3-80"><path class="cls-4_data-storage-3-80" d="M294.15,271.44c-1.21.54-1.89,1.84-1.64,3.15.14,1.27.74,2.47.94,3.73.59,3.67-2.47,7.24-6.06,8.16-4.7,1.2-9.52-1.17-13.7-3.65-.52-.27-1-.61-1.43-1.02-.67-.89-1.07-1.94-1.17-3.05-.45-2.07-.7-4.18-.76-6.31,0-4.85,2.13-9.48,2.24-14.3.07-6.76-3.65-13-9.64-16.14-2.44-1.07-4.94-1.98-7.51-2.7-2.25-.78-4.43-1.74-6.52-2.86-1.32-.69-2.76-1.66-2.86-3.13,2.21-.99,4.63-1.4,7.03-1.2h41.47c.52-.05,1.04.04,1.52.27.47.36.82.86,1,1.43,2.77,6.65,2.45,14.01,3.02,21.06.22,3.44.86,6.85,1.9,10.14.59,1.79,2.5,5.2,1.3,7.08-2.26,3.49-6.59-1.36-9.14-.67Z"/><path class="cls-5_data-storage-3-80" d="M239.53,152.23c.68-1.11,1.2-2.3,1.57-3.55,1.39-3.77,3-7.46,4.82-11.04.74-1.73,1.84-3.28,3.23-4.55,2.59-2.12,6.23-2.17,9.58-2.13,2.23,0,4.78.21,6.12,1.99.72,1.18,1.08,2.54,1.04,3.92.72,11.48-.55,23-3.76,34.05-6.15.31-12.31.59-18.47.82-4.19.17-12.55,2.17-15.99-.83-8.77-7.64,8.95-14.53,11.85-18.67Z"/><path class="cls-20_data-storage-3-80" d="M298.29,257.61c-.28,1.73-.18,3.5.29,5.19.66,1.6,1.79,2.96,3.25,3.9,3.09,2.16,6.9,3.04,10.62,2.46.5-.03.98-.23,1.34-.59.23-.3.35-.67.36-1.04-.01-2.01-.78-3.95-2.16-5.42-1.37-1.46-2.49-3.14-3.3-4.96-1.2-3.55,1.17-12.25-5.29-11.65-5.35.5-4.7,8.35-5.1,12.11Z"/><path class="cls-16_data-storage-3-80" d="M274.83,209.32c4.91.18,9.81.65,14.67,1.43,8.58,1.32,14.07,4.96,16.19,13.57,1.94,7.86,3.89,15.83,3.86,23.94.2,1.91-.35,3.83-1.53,5.35-1.99,2-5.59,1.26-7.55-.74s-2.76-4.88-3.56-7.58c-1.34-4.59-3.05-15.47-7.91-16.69-8.24-2.06-16.7,3.13-24.77,0-2.88-1.01-5.62-2.37-8.16-4.06-2.54-1.71-4.51-4.15-5.63-7.01-.51-1.52-.79-3.1-.84-4.7-.1-1.32-.07-2.64.09-3.95.26-1.52.51-1.34,2.04-1.33,2.59,0,5.16.2,7.74.44,5.12.43,10.24,1.19,15.37,1.33Z"/><path class="cls-21_data-storage-3-80 targetColor" d="M296.69,263.5s-1.17,2.07-.24,3.5,11.3,9.91,19.62,5.26c8.32-4.65-9.47-7.72-9.47-7.72l-9.91-1.04Z" style="fill: rgb(104, 225, 253);"/><path class="cls-19_data-storage-3-80" d="M297.81,258.46c.76-.26,1.59.08,1.96.79,1.27,1.9,3.43,3.02,5.72,2.96,2.55-.27,3.92-2.99,5.15-2.86s7.06,6.59,7.15,9.04c.09,2.45-3.52,3.77-7.26,3.53s-11.8-3.92-13.14-6.08c-1.08-2.38-.92-5.14.43-7.38Z"/><path class="cls-20_data-storage-3-80" d="M280.18,266.45c-.56,1.66-.76,3.43-.57,5.18.39,1.69,1.28,3.21,2.56,4.38,2.69,2.65,6.31,4.14,10.08,4.18.5.06,1.01-.07,1.43-.36.27-.26.46-.6.53-.97.32-2-.13-4.04-1.24-5.72-1.11-1.66-1.94-3.5-2.45-5.43-.61-3.69,3.16-11.9-3.32-12.37-5.42-.37-6.06,7.51-7.02,11.12Z"/><path class="cls-16_data-storage-3-80" d="M264.86,214.97c4.84.95,9.61,2.2,14.3,3.73,8.19,2.7,13.05,7.15,13.74,16.04.61,8.08,1.23,16.26-.11,24.31-.12,1.92-.97,3.72-2.39,5.02-2.29,1.64-5.72.33-7.34-1.97-1.62-2.3-1.92-5.25-2.26-8.05-.59-4.75-.47-15.73-5.08-17.76-4.86-2.12-10.28-1.43-15.44-1.72-2.69-.14-5.52-.67-8.15-.73-8.79-.19-10.62-6.73-10.92-7.76-1.09-3.29-1.64-6.74-1.63-10.21.11-1.7.38-3.38.82-5.02.33-1.53.34-1.7,2-1.43,2.56.43,5.08,1.04,7.56,1.7,4.95,1.26,9.85,2.86,14.9,3.85Z"/><path class="cls-21_data-storage-3-80 targetColor" d="M277.57,272s-1.43,1.86-.82,3.42c.61,1.56,9.51,11.62,18.49,8.39s-8.06-9.17-8.06-9.17l-9.61-2.65Z" style="fill: rgb(104, 225, 253);"/><path class="cls-19_data-storage-3-80" d="M279.49,267.21c.79-.13,1.57.34,1.82,1.1.95,2.1,2.91,3.56,5.19,3.86,2.56.14,4.29-2.32,5.55-1.97s5.89,7.66,5.53,10.01-4.09,3.15-7.74,2.29c-3.65-.86-11-5.79-11.97-8.14-.66-2.5-.05-5.17,1.62-7.15Z"/><polygon class="cls-21_data-storage-3-80 targetColor" points="296.36 205.26 274.19 213.36 289.91 223.09 312.33 210.44 296.36 205.26" style="fill: rgb(104, 225, 253);"/><polygon class="cls-6_data-storage-3-80" points="296.36 205.26 274.19 213.36 289.91 223.09 312.33 210.44 296.36 205.26"/><polygon class="cls-21_data-storage-3-80 targetColor" points="273.18 215.6 290.41 227.54 319.21 215.6 330.26 193.34 296.96 203.35 289.91 223.09 274.19 213.36 273.18 215.6" style="fill: rgb(104, 225, 253);"/><path class="cls-19_data-storage-3-80" d="M276.84,191.22c-1.72,1.03-3.52,1.43-4.98.39l-.36-.3c-2.32-2.27-2.69-7.15-2.59-10.71.04-1.5.16-2.99.37-4.48l8.75-10.64,4.52,20.35c-1.61,2.09-3.54,3.91-5.72,5.39Z"/><path class="cls-19_data-storage-3-80" d="M276.92,186.13c-.16.97-.17,2-.31,3-.79,5.46-2.86,10.9-2.07,16.49.37,1.22.34,2.52-.09,3.72-.61.92-1.54,1.58-2.6,1.86-5.2,1.93-10.88,1.92-16.43,1.87-4.16,0-10.14.33-13.58-2.43-1.28-1.28-2-3.01-2.02-4.82-.61-5.85-.61-11.75,0-17.6l.17-2.29c.48-5.27,1.14-10.51,2-15.73.64-3.77,1.54-7.84,4.45-10.34,3.86-3.33,10.61-4.9,15.59-5.09,1.62-.1,3.24.04,4.82.41,2.21.7,4.28,1.76,6.13,3.15,2.23,1.54,4.22,2.86,5.05,5.42.9,2.94,1.38,5.98,1.43,9.05.04,2.9-.33,5.78-1.09,8.58-.36,1.36-.92,2.69-1.26,4.05-.1.2-.14.44-.19.7Z"/><path class="cls-1_data-storage-3-80" d="M250.08,213.81c-1.66.23-5.09-1.76-6.28-2.16-.7-.23-1.32-.69-2-.97-3.49-1.43-2.42-11.65-2.37-14.44.14-7.36-.2-15.06.79-22.32.25-2.82.99-5.57,2.19-8.14,1.22-2.59,3.53-4.5,6.31-5.22.53-.17,1.1-.17,1.63,0,2.12.89,2.04,4.59,2.16,6.41.04,1.83.42,3.63,1.13,5.32.83,1.79,2.16,2.45,3.45,3.77,3.02,2.84,5.42,6.27,7.05,10.08.74,2,1.13,4.12,1.79,6.16,1.7,4.48,4.11,8.66,7.15,12.37,1.03,1.43,2.13,3.15,1.53,4.78-.54,1.13-1.53,1.98-2.73,2.33-1.47.6-3.07.82-4.65.64-3.73-.49-6.55-3.5-9.88-5.23-1.16-.6-3.37-1.62-4.69-1.04s-1.77,2.33-1.97,3.52c-.11.76.51,3.22.16,3.7-.17.25-.44.41-.74.44Z"/><path class="cls-20_data-storage-3-80" d="M270.64,151.41c-.67.54-1.52.82-2.39.79-.73-.02-1.45-.12-2.16-.29h-.39c-.1-.04-.21-.04-.3,0-.1.07-.17.18-.19.3-.36,1.41-.6,2.84-.71,4.29h0v.79c.01.27-.05.55-.19.79-.25.26-.59.42-.96.44-.66.11-1.33.11-1.99,0-1.39-.34-2.68-1.02-3.75-1.99.46-2.43.69-4.9.69-7.38,0-3.2-.34-6.45.46-9.55.44-2.85,3.11-4.8,5.96-4.36.23.04.45.09.68.15,2.26.29,4.4,1.22,6.15,2.69.51.55.76,1.3.67,2.04,0,1.27.07,2.55,0,3.82-.07,1.27-.19,2.86-.37,4.29-.02,1.17-.45,2.29-1.22,3.17Z"/><path class="cls-18_data-storage-3-80" d="M269.98,138.6c-1.63,0-3.36-.5-4.96-.1-2.27.77-3.62,3.1-3.16,5.45-.66.13-.6-1-1-1.52-.4-.51-1.57,0-1.76.69-.07.78.05,1.56.36,2.27.37,1.43.24,2.94-.36,4.29-.14.31-.44.67-.76.54s-.49-.74-.64-1.03c-.27-.4-.56-.79-.87-1.16-.64-.76-1.43-1.43-2.04-2.2-1.33-1.24-2.02-3.01-1.87-4.82.14-.71.49-1.37.99-1.9.42-.47.93-.84,1.5-1.09.23-.11.5-.23.59-.46.03-.14.03-.29,0-.43-.06-1.91,1-3.69,2.72-4.53,1.69-.8,3.55-1.19,5.42-1.14h3.65c.99.09,2,0,2.96-.26-.14-.68-.37-1.34-.67-1.97.8.37,1.55.85,2.22,1.43.02-.42-.03-.84-.14-1.24,1.29.53,2.41,1.41,3.23,2.53.81,1.57.57,3.47-.59,4.79-1.13,1.16-2.67,1.82-4.29,1.83l-.5.03Z"/><path class="cls-17_data-storage-3-80" d="M266.09,151.92h-.39c-.1-.04-.21-.04-.3,0-.1.07-.17.18-.19.3-.36,1.41-.6,2.84-.71,4.29h0c-2.48-1.22-3.76-4.02-3.06-6.69,1.46.88,3.01,1.6,4.62,2.16l.03-.06Z"/><path class="cls-20_data-storage-3-80" d="M303.3,198.76c-.96-.4-1.77-1.3-2.86-1.26s-1.96,1.32-2.86,2.14c-.98.88-2.26,1.34-3.57,1.3-.42-.02-.83-.08-1.23-.19-1.7-.5-3.18-1.55-4.2-2.99,0,0,2.66-2.99,3-3.19,1.17-.67,2.76-.61,4.02-1.29,1.27-.81,2.59-1.54,3.95-2.2,2.77-1.14,5.91-.9,8.48.64.31.19.66.53.49.87-.07.13-.19.23-.33.29h0c-1.47.58-3.07.76-4.63.5.92.45,1.77,1.01,2.55,1.69.34.3.66.87.29,1.14-.2.09-.43.09-.63,0l-3.46-.84c.9.69,1.64,1.56,2.19,2.55.1.16.15.35.14.54-.17.44-.86.49-1.32.29Z"/><path class="cls-17_data-storage-3-80" d="M303.3,198.76c-.96-.4-1.77-1.3-2.86-1.26s-1.96,1.32-2.86,2.14c-.98.88-2.26,1.34-3.57,1.3-.33-.15-.65-.34-.94-.56-.22-.14-.39-.35-.47-.6-.05-.47.25-.9.7-1.03.47-.11.95-.18,1.43-.21.76-.14,1.44-.56,1.9-1.17.39-.51.63-1.17,1.19-1.43.37-.17.77-.26,1.17-.26l1.57-.1c.24,0,.48-.04.7-.14.22-.11.35-.34.33-.59,0-.27-.33-.41-.59-.51-.51-.19-2.24-.29-1.13-.9.81-.34,1.67-.55,2.55-.6,1.75-.17,3.52-.17,5.28,0,.19.02.37.05.56.1h0c-1.47.58-3.07.76-4.63.5.92.45,1.77,1.01,2.55,1.69.34.3.66.87.29,1.14-.2.09-.43.09-.63,0l-3.46-.84c.9.69,1.64,1.56,2.19,2.55.1.16.15.35.14.54-.24.4-.93.44-1.39.24Z"/><path class="cls-19_data-storage-3-80" d="M288.74,198.79c-3.53-.04-7.03-.71-10.34-1.96-2.35-.92-4.43-2.42-6.03-4.36-.21-.25-.37-.54-.47-.86-.18-.53-.18-1.11,0-1.64.44-1.57,1.36-2.96,2.63-3.99,3.42-2.55,8.06-.14,8.06-.14,0,0,8.71,6.78,8.95,8.12.14.73-.7,2.1-1.52,3.19-.82,1.09-1.29,1.64-1.29,1.64Z"/><rect class="cls-19_data-storage-3-80" x="243.37" y="160.17" width="15.77" height="37.12" rx="7.88" ry="7.88" transform="translate(-29.78 51.86) rotate(-11.13)"/><path class="cls-1_data-storage-3-80" d="M288.74,198.79c-3.53-.04-7.03-.71-10.34-1.96-.41-.16-2.55-1.43-2.86-1.3-.13.1-.22.24-.26.4l-1.16,3.3c-.7-.46-1.14-1.23-1.17-2.07-.09-.83,0-1.66-.09-2.47-.27-1.26-.7-2.49-1.27-3.65-1.56-3.98-1.27-8.41-.97-12.67l3.17,8.31c.26.79.63,1.55,1.09,2.24.42.53.9,1.01,1.43,1.43,2.26,2.02,4.86,3.62,7.68,4.73.49.2,5.83,2.47,6.12,2.06-.74.94-1.37,1.64-1.37,1.64Z"/><path class="cls-20_data-storage-3-80" d="M290.33,216.25c-.86-.76-1.43-1.99-2.53-2.27-1.1-.29-2.23.77-3.3,1.43-1.23.62-2.67.66-3.93.13-.42-.16-.81-.36-1.19-.6-1.61-1.14-2.84-2.74-3.53-4.59,0,0,3.27-2.34,3.66-2.45,1.32-.33,2.86.24,4.29,0,1.44-.45,2.91-.81,4.39-1.09,3.16-.24,6.25,1.05,8.29,3.47.27.31.53.8.3,1.1-.1.11-.24.19-.39.2h0c-1.63.13-3.27-.21-4.72-.97.83.79,1.55,1.68,2.16,2.65.29.43.47,1.14,0,1.32-.2,0-.43,0-.63-.19l-3.26-2.04c.75,1.04,1.3,2.22,1.63,3.46.06.2.06.41,0,.61-.14.37-.84.26-1.24-.17Z"/><path class="cls-17_data-storage-3-80" d="M290.33,216.25c-.86-.76-1.43-1.99-2.53-2.27-1.1-.29-2.23.77-3.3,1.43-1.23.62-2.67.66-3.93.13-.3-.27-.57-.57-.82-.9-.2-.22-.33-.5-.36-.8.03-.49.44-.88.93-.89.48.03.96.1,1.43.21.77.12,1.56-.11,2.14-.63.5-.43.89-1.06,1.43-1.23.41-.07.82-.03,1.22.1l1.6.41c.24.05.48.05.71,0,.26-.05.45-.27.46-.53-.04-.3-.21-.57-.47-.73-.47-.37-2.17-1.06-.93-1.34.88-.11,1.78-.06,2.65.17,1.8.41,3.56,1.01,5.25,1.77.19.08.37.18.54.29h0c-1.63.13-3.27-.21-4.72-.97.83.79,1.55,1.68,2.16,2.65.29.43.47,1.14,0,1.32-.2,0-.43,0-.63-.19l-3.26-2.04c.75,1.04,1.3,2.22,1.63,3.46.06.2.06.41,0,.61-.1.51-.8.4-1.2-.03Z"/><path class="cls-19_data-storage-3-80" d="M266.48,192.37l14.78,13.14-4.89,8.88s-28.13-13.17-29.56-19.53c-1.43-6.36,6.01-6.12,6.01-6.12,0,0,6.15-4.78,13.66,3.63Z"/></g></svg>