<svg version="1.1" id="Layer_1" xmlns="http://www.w3.org/2000/svg" xmlns:xlink="http://www.w3.org/1999/xlink" x="0px" y="0px" viewBox="0 0 500 500" style="width: 170px;" xml:space="preserve" data-imageid="message-received-44" imageName="Message Received" class="illustrations_image">
<style type="text/css">
	.st0_message-received-44{fill:#68E1FD;}
	.st1_message-received-44{fill:#093F68;}
	.st2_message-received-44{fill:#FFFFFF;}
	.st3_message-received-44{fill:#FFBC0E;}
	.st4_message-received-44{fill:#DFEAEF;}
	.st5_message-received-44{fill:#F56132;}
</style>
<g id="device_message-received-44">
	<path class="st0_message-received-44 targetColor" d="M147.2,86.1h180.4c9.5,0,17.2,7.7,17.2,17.2v298.7c0,9.5-7.7,17.2-17.2,17.2H147.2c-9.5,0-17.2-7.7-17.2-17.2&#10;&#9;&#9;V103.3C129.9,93.8,137.6,86.1,147.2,86.1z" style="fill: rgb(104, 225, 253);"/>
	<path class="st1_message-received-44" d="M327.4,421.1h-180c-10.6,0-19.2-8.6-19.2-19.2V103.5c0-10.6,8.6-19.2,19.2-19.2h180c10.6,0,19.2,8.6,19.2,19.2&#10;&#9;&#9;v298.3C346.6,412.5,338,421.1,327.4,421.1z M147.4,87.9c-8.6,0-15.6,7-15.6,15.6v298.3c0,8.6,7,15.6,15.6,15.6h180&#10;&#9;&#9;c8.6,0,15.6-7,15.6-15.6V103.5c0-8.6-7-15.6-15.6-15.6H147.4z"/>
	<path class="st2_message-received-44" d="M145.2,119.7h184.3c2.8,0,5.1,2.3,5.1,5.1v250.4c0,2.8-2.3,5.1-5.1,5.1H145.2c-2.8,0-5.1-2.3-5.1-5.1V124.8&#10;&#9;&#9;C140.1,122,142.4,119.7,145.2,119.7z"/>
	<path class="st1_message-received-44" d="M325.5,382.1H149.3c-6,0-10.9-4.9-10.9-10.9V128.9c0-6,4.9-10.9,10.9-10.9h176.2c6,0,10.9,4.9,10.9,10.9v242.3&#10;&#9;&#9;C336.4,377.2,331.5,382.1,325.5,382.1z M149.3,121.5c-4,0-7.3,3.3-7.3,7.3l0,0v242.3c0,4,3.3,7.3,7.3,7.3h176.2&#10;&#9;&#9;c4,0,7.3-3.3,7.3-7.3V128.9c0-4-3.3-7.3-7.3-7.3l0,0H149.3z"/>
	<circle class="st1_message-received-44" cx="209.6" cy="104.7" r="2.8"/>
	<path class="st1_message-received-44" d="M267.9,106.5h-44.9c-1,0-1.8-0.8-1.8-1.8c0-1,0.8-1.8,1.8-1.8h44.9c1,0,1.8,0.8,1.8,1.8&#10;&#9;&#9;C269.7,105.7,268.9,106.5,267.9,106.5z"/>
	<circle class="st1_message-received-44" cx="237.4" cy="398.7" r="11.8"/>
</g>
<g id="email_message-received-44">
	<polygon class="st3_message-received-44" points="170.5,314.5 304.2,314.5 304.2,228.9 237.4,185.6 170.5,228.9 &#9;"/>
	<path class="st1_message-received-44" d="M304.2,316.3H170.5c-1,0-1.8-0.8-1.8-1.8v-85.6c0-0.6,0.3-1.2,0.8-1.5l66.9-43.3c0.6-0.4,1.4-0.4,2,0&#10;&#9;&#9;l66.9,43.3c0.5,0.3,0.8,0.9,0.8,1.5v85.6C306.1,315.5,305.3,316.3,304.2,316.3C304.3,316.3,304.3,316.3,304.2,316.3z M172.3,312.7&#10;&#9;&#9;h130.1v-82.8l-65.1-42.2l-65.1,42.2V312.7z"/>
	<rect x="180.5" y="207.9" class="st2_message-received-44" width="113.8" height="101"/>
	<path class="st1_message-received-44" d="M294.3,310.7H180.5c-1,0-1.8-0.8-1.8-1.8v-101c0-1,0.8-1.8,1.8-1.8h113.8c1,0,1.8,0.8,1.8,1.8v101&#10;&#9;&#9;C296.1,309.9,295.3,310.7,294.3,310.7z M182.3,307.1h110.2v-97.4H182.3L182.3,307.1z"/>
	<path class="st4_message-received-44" d="M277.2,229h-79.7c-1,0-1.8-0.8-1.8-1.8s0.8-1.8,1.8-1.8h79.7c1,0,1.8,0.8,1.8,1.8S278.2,229,277.2,229z"/>
	<path class="st4_message-received-44" d="M277.2,243.2h-79.7c-1,0-1.8-0.8-1.8-1.8s0.8-1.8,1.8-1.8h79.7c1,0,1.8,0.8,1.8,1.8S278.2,243.2,277.2,243.2z"/>
	<path class="st4_message-received-44" d="M277.2,257.4h-79.7c-1,0-1.8-0.8-1.8-1.8c0-1,0.8-1.8,1.8-1.8h79.7c1,0,1.8,0.8,1.8,1.8&#10;&#9;&#9;C279,256.6,278.2,257.4,277.2,257.4z"/>
	<path class="st4_message-received-44" d="M277.2,271.6h-79.7c-1,0-1.8-0.8-1.8-1.8c0-1,0.8-1.8,1.8-1.8h79.7c1,0,1.8,0.8,1.8,1.8&#10;&#9;&#9;C279,270.8,278.2,271.6,277.2,271.6z"/>
	<polygon class="st3_message-received-44" points="304.2,314.5 170.5,314.5 170.5,228.9 &#9;"/>
	<path class="st1_message-received-44" d="M304.2,316.3H170.5c-1,0-1.8-0.8-1.8-1.8v-85.6c0-1,0.8-1.8,1.8-1.8c0.4,0,0.7,0.1,1,0.3L305.2,313&#10;&#9;&#9;c0.8,0.6,1.1,1.7,0.5,2.5C305.4,316,304.8,316.3,304.2,316.3L304.2,316.3z M172.3,312.7h125.8l-125.8-80.5V312.7z"/>
	<polygon class="st3_message-received-44" points="170.5,314.5 304.2,314.5 304.2,228.9 &#9;"/>
	<path class="st1_message-received-44" d="M304.2,316.3H170.5c-1,0-1.8-0.8-1.8-1.8c0-0.6,0.3-1.2,0.8-1.6l133.7-85.6c0.8-0.5,1.9-0.3,2.5,0.5&#10;&#9;&#9;c0.2,0.3,0.3,0.6,0.3,1v85.6C306,315.5,305.2,316.3,304.2,316.3z M176.7,312.7h125.8v-80.5L176.7,312.7z"/>
	<path class="st1_message-received-44" d="M304.2,316.3c-0.4,0-0.7-0.1-1-0.3l-66.9-42.8c-0.8-0.6-0.9-1.8-0.2-2.5c0.5-0.6,1.4-0.8,2.2-0.5l66.9,42.8&#10;&#9;&#9;c0.8,0.5,1.1,1.6,0.6,2.5C305.4,316,304.8,316.3,304.2,316.3L304.2,316.3z"/>
</g>
<g id="speech-bubble_message-received-44">
	<path class="st5_message-received-44" d="M328.6,81.3c-22.9,0-41.5,18.6-41.5,41.5c0,11.8,5,23,13.8,30.9v21.8l12.3-14.2c21.3,8.6,45.4-1.7,54-23&#10;&#9;&#9;s-1.7-45.4-23-54C339.2,82.3,333.9,81.3,328.6,81.3L328.6,81.3z"/>
	<path class="st1_message-received-44" d="M300.9,177.3c-0.2,0-0.4,0-0.6-0.1c-0.7-0.3-1.2-0.9-1.2-1.7v-21c-17.4-16.3-18.4-43.6-2.1-61.1&#10;&#9;&#9;s43.6-18.4,61.1-2.1c17.4,16.3,18.4,43.6,2.1,61.1c-11.8,12.7-30.1,17.1-46.4,11.1l-11.5,13.2C301.9,177.1,301.4,177.3,300.9,177.3&#10;&#9;&#9;z M328.6,83.1c-21.9,0-39.7,17.8-39.7,39.7c0,11.3,4.8,22,13.2,29.5c0.4,0.3,0.6,0.8,0.6,1.3v17l9.2-10.5c0.5-0.6,1.3-0.8,2-0.5&#10;&#9;&#9;c20.4,8.1,43.5-1.8,51.6-22.1c8.1-20.4-1.8-43.5-22.1-51.6C338.6,84,333.6,83.1,328.6,83.1L328.6,83.1z"/>
	<path class="st2_message-received-44" d="M326.8,115.4l-5.7,5l-3.4-3.9l9.2-7.8h5.6v28.2h-5.7L326.8,115.4z"/>
</g>
<g id="lines_message-received-44">
	<path class="st4_message-received-44" d="M204.1,182.4c-0.9,0-1.7-0.7-1.8-1.6l-1.5-17.6c-0.1-1,0.5-1.9,1.5-2c1-0.1,1.9,0.5,2,1.5c0,0.1,0,0.1,0,0.2&#10;&#9;&#9;l1.5,17.6c0.1,1-0.6,1.9-1.6,1.9c0,0,0,0,0,0L204.1,182.4z"/>
	<path class="st4_message-received-44" d="M187.9,187.4c-0.6,0-1.2-0.3-1.5-0.9l-11.8-19c-0.5-0.8-0.3-2,0.6-2.5s2-0.3,2.5,0.6l11.8,19&#10;&#9;&#9;c0.5,0.8,0.3,2-0.6,2.5C188.6,187.3,188.2,187.4,187.9,187.4z"/>
	<path class="st4_message-received-44" d="M175.1,198.3c-0.3,0-0.6-0.1-0.9-0.3l-14.2-8.5c-0.8-0.6-1-1.7-0.5-2.5c0.5-0.7,1.5-1,2.3-0.6l14.2,8.6&#10;&#9;&#9;c0.9,0.5,1.1,1.6,0.6,2.5C176.3,198,175.7,198.3,175.1,198.3L175.1,198.3z"/>
</g>
</svg>